<svg xmlns="http://www.w3.org/2000/svg" viewBox="0 0 512 512" role="img" aria-label="GC">
  <defs>
    <linearGradient id="bg" x1="40" y1="38" x2="470" y2="482" gradientUnits="userSpaceOnUse">
      <stop offset="0" stop-color="#1f5f45"/>
      <stop offset="0.52" stop-color="#114936"/>
      <stop offset="1" stop-color="#0f172a"/>
    </linearGradient>
    <linearGradient id="board" x1="110" y1="278" x2="390" y2="440" gradientUnits="userSpaceOnUse">
      <stop offset="0" stop-color="#d8bb90"/>
      <stop offset="1" stop-color="#b88f62"/>
    </linearGradient>
    <linearGradient id="leaf" x1="84" y1="188" x2="304" y2="404" gradientUnits="userSpaceOnUse">
      <stop offset="0" stop-color="#6f8250"/>
      <stop offset="0.58" stop-color="#4c6337"/>
      <stop offset="1" stop-color="#334629"/>
    </linearGradient>
    <linearGradient id="slice" x1="172" y1="122" x2="304" y2="246" gradientUnits="userSpaceOnUse">
      <stop offset="0" stop-color="#f4eee8"/>
      <stop offset="1" stop-color="#d9cdc0"/>
    </linearGradient>
    <linearGradient id="fried" x1="310" y1="250" x2="424" y2="372" gradientUnits="userSpaceOnUse">
      <stop offset="0" stop-color="#d7aa69"/>
      <stop offset="0.55" stop-color="#be8a4b"/>
      <stop offset="1" stop-color="#8b5f35"/>
    </linearGradient>
    <filter id="drop" x="0" y="0" width="512" height="512">
      <feDropShadow dx="0" dy="10" stdDeviation="9" flood-color="#020617" flood-opacity="0.35"/>
    </filter>
  </defs>

  <rect x="28" y="28" width="456" height="456" rx="112" fill="url(#bg)"/>
  <circle cx="104" cy="90" r="68" fill="#fff" opacity="0.07"/>
  <circle cx="415" cy="402" r="78" fill="#fff" opacity="0.05"/>

  <g filter="url(#drop)">
    <rect x="86" y="302" width="340" height="124" rx="34" fill="url(#board)"/>
  </g>

  <g filter="url(#drop)">
    <rect x="95" y="238" width="146" height="146" rx="24" fill="url(#leaf)"/>
    <path d="M95 311h146M168 238v146" stroke="#86a96d" stroke-opacity="0.48" stroke-width="6"/>
    <rect x="157" y="224" width="22" height="174" rx="10" fill="#d42b3f"/>
    <rect x="83" y="301" width="170" height="22" rx="10" fill="#d42b3f"/>
  </g>

  <g filter="url(#drop)">
    <rect x="210" y="248" width="170" height="150" rx="24" fill="url(#leaf)"/>
    <path d="M210 322h170M294 248v150" stroke="#8eb173" stroke-opacity="0.45" stroke-width="7"/>
    <rect x="281" y="232" width="26" height="182" rx="11" fill="#d42b3f"/>
    <rect x="198" y="310" width="194" height="24" rx="11" fill="#d42b3f"/>
    <rect x="198" y="315" width="194" height="10" rx="5" fill="#facc5a" opacity="0.95"/>
  </g>

  <g filter="url(#drop)">
    <circle cx="242" cy="171" r="78" fill="url(#slice)"/>
    <circle cx="242" cy="171" r="78" fill="none" stroke="#5e7344" stroke-width="8"/>
    <path d="M169 153c45 12 95-8 145 4" stroke="#cdbfb2" stroke-width="7" stroke-linecap="round" opacity="0.75"/>
    <circle cx="201" cy="170" r="5" fill="#b4a492"/>
    <circle cx="218" cy="192" r="8" fill="#b4a492"/>
    <circle cx="238" cy="158" r="4" fill="#b4a492"/>
    <circle cx="260" cy="182" r="7" fill="#b4a492"/>
    <circle cx="281" cy="162" r="5" fill="#b4a492"/>
    <circle cx="244" cy="206" r="4" fill="#b4a492"/>
  </g>

  <g filter="url(#drop)">
    <path d="M302 332c8-35 40-63 84-71 16 30 10 66-14 92-27 28-66 35-95 20 2-16 9-28 25-41z" fill="url(#fried)"/>
    <path d="M311 336c15 11 36 15 61 12-11 17-29 28-51 30-7-13-9-27-10-42z" fill="#e8ddd2"/>
    <circle cx="337" cy="353" r="3" fill="#b49d86"/>
    <circle cx="354" cy="349" r="4" fill="#b49d86"/>
    <circle cx="366" cy="362" r="2.7" fill="#b49d86"/>
  </g>
</svg>
