<svg xmlns="http://www.w3.org/2000/svg" viewBox="0 0 512 512" role="img" aria-label="GC">
  <defs>
    <linearGradient id="bg" x1="48" y1="34" x2="470" y2="486" gradientUnits="userSpaceOnUse">
      <stop offset="0" stop-color="#4ade80"/>
      <stop offset="0.5" stop-color="#22c55e"/>
      <stop offset="1" stop-color="#15803d"/>
    </linearGradient>
    <radialGradient id="glow" cx="0" cy="0" r="1" gradientUnits="userSpaceOnUse" gradientTransform="translate(160 118) rotate(39) scale(214 218)">
      <stop offset="0" stop-color="#dcfce7" stop-opacity="0.52"/>
      <stop offset="1" stop-color="#86efac" stop-opacity="0"/>
    </radialGradient>
    <linearGradient id="letters" x1="152" y1="156" x2="390" y2="360" gradientUnits="userSpaceOnUse">
      <stop offset="0" stop-color="#ffffff"/>
      <stop offset="0.5" stop-color="#ecfdf5"/>
      <stop offset="1" stop-color="#d1fae5"/>
    </linearGradient>
    <linearGradient id="accent" x1="140" y1="356" x2="360" y2="402" gradientUnits="userSpaceOnUse">
      <stop offset="0" stop-color="#dcfce7"/>
      <stop offset="1" stop-color="#86efac"/>
    </linearGradient>
    <filter id="shadow" x="0" y="0" width="512" height="512" filterUnits="userSpaceOnUse">
      <feDropShadow dx="0" dy="10" stdDeviation="10" flood-color="#020617" flood-opacity="0.34"/>
    </filter>
  </defs>

  <rect x="24" y="24" width="464" height="464" rx="120" fill="url(#bg)"/>
  <rect x="24" y="24" width="464" height="464" rx="120" fill="none" stroke="#dcfce7" stroke-opacity="0.35" stroke-width="2"/>
  <rect x="24" y="24" width="464" height="464" rx="120" fill="url(#glow)"/>

  <g opacity="0.22">
    <circle cx="102" cy="84" r="68" fill="#ffffff"/>
    <circle cx="422" cy="416" r="82" fill="#ffffff"/>
  </g>

  <g filter="url(#shadow)">
    <circle cx="256" cy="252" r="158" fill="#166534" fill-opacity="0.44"/>
    <circle cx="256" cy="252" r="158" fill="none" stroke="#dcfce7" stroke-opacity="0.34" stroke-width="4"/>

    <g fill="none" stroke="url(#letters)" stroke-width="30" stroke-linecap="round" stroke-linejoin="round">
      <path d="M228 170a94 94 0 1 0 0 172h62v-58h-46"/>
      <path d="M356 182a94 94 0 1 0 0 148"/>
    </g>

    <path d="M142 360c55-24 117-24 182 0" stroke="url(#accent)" stroke-width="16" stroke-linecap="round"/>
    <circle cx="142" cy="360" r="8" fill="#dcfce7"/>
    <circle cx="324" cy="360" r="8" fill="#86efac"/>
  </g>
</svg>
